<?xml version="1.0" encoding="UTF-8" standalone="no"?>
<svg
   id="Capa_1"
   enable-background="new 0 0 512 512"
   height="512"
   viewBox="0 0 512 512"
   width="512"
   version="1.1"
   sodipodi:docname="photo_interimBot.svg"
   inkscape:version="1.1.2 (0a00cf5339, 2022-02-04)"
   xmlns:inkscape="http://www.inkscape.org/namespaces/inkscape"
   xmlns:sodipodi="http://sodipodi.sourceforge.net/DTD/sodipodi-0.dtd"
   xmlns="http://www.w3.org/2000/svg"
   xmlns:svg="http://www.w3.org/2000/svg"
   xmlns:rdf="http://www.w3.org/1999/02/22-rdf-syntax-ns#"
   xmlns:cc="http://creativecommons.org/ns#"
   xmlns:dc="http://purl.org/dc/elements/1.1/">
  <metadata
     id="metadata61">
    <rdf:RDF>
      <cc:Work
         rdf:about="">
        <dc:format>image/svg+xml</dc:format>
        <dc:type
           rdf:resource="http://purl.org/dc/dcmitype/StillImage" />
        <dc:title />
      </cc:Work>
    </rdf:RDF>
  </metadata>
  <defs
     id="defs59">
    <inkscape:path-effect
       effect="spiro"
       id="path-effect89"
       is_visible="true"
       lpeversion="1" />
  </defs>
  <sodipodi:namedview
     pagecolor="#ffffff"
     bordercolor="#666666"
     borderopacity="1"
     objecttolerance="10"
     gridtolerance="10"
     guidetolerance="10"
     inkscape:pageopacity="0"
     inkscape:pageshadow="2"
     inkscape:window-width="1920"
     inkscape:window-height="1020"
     id="namedview57"
     showgrid="false"
     inkscape:zoom="1.4277344"
     inkscape:cx="284.36662"
     inkscape:cy="267.55677"
     inkscape:window-x="0"
     inkscape:window-y="28"
     inkscape:window-maximized="1"
     inkscape:current-layer="g54"
     inkscape:pagecheckerboard="0" />
  <g
     id="g54">
    <g
       id="g1184"
       inkscape:export-xdpi="257.11237"
       inkscape:export-ydpi="257.11237"
       transform="matrix(0.97667271,0,0,0.9765625,3.5478339,0.53389485)">
      <g
         id="g1155"
         transform="translate(77.86768,-27.95973)">
        <path
           d="m 250.25277,506.6142 h 23.801 c 13.598,0 24.621,-11.023 24.621,-24.621 v -50.064 c 0,-13.598 11.023,-24.621 24.621,-24.621 h 50.064 c 13.598,0 24.621,-11.023 24.621,-24.621 v -31.187 43.361 c 0,7.97 -3.166,15.613 -8.802,21.249 l -81.703,81.703 c -5.636,5.636 -13.279,8.802 -21.249,8.802 h -35.974 z"
           fill="#efe2dd"
           id="path6" />
        <path
           d="m 397.97777,103.8842 v 77.18 H -47.762234 v -77.18 c 0,-16.559999 13.43,-29.999999 30,-29.999999 H 367.97777 c 16.57,0 30,13.44 30,29.999999 z"
           fill="#fece85"
           id="path8"
           style="fill:#fece85;fill-opacity:1" />
        <g
           id="g18"
           transform="translate(-80.892234,32.910201)">
          <g
             id="g12">
            <path
               d="m 118.05,93.336 c -5.722,0 -10.58,-0.003 -14.72,-0.003 -12.58,0 -22.81,-10.23 -22.81,-22.8 v -29.56 h 15 v 29.56 c 0,4.3 3.5,7.8 7.81,7.8 4.14,0.001 18.86,15.003 14.72,15.003 z"
               fill="#fdb441"
               id="path10" />
          </g>
          <g
             id="g16">
            <path
               d="m 390.507,93.336 c 0,0 -10.577,-0.003 -14.727,-0.003 -12.57,0 -22.8,-10.23 -22.8,-22.8 v -29.56 h 15 v 29.56 c 0,4.3 3.5,7.8 7.8,7.8 4.15,0.001 14.727,10.863 14.727,15.003 z"
               fill="#fdb441"
               id="path14" />
          </g>
        </g>
        <g
           id="g28"
           style="fill:#fedba6"
           transform="translate(-80.892234,32.910201)">
          <path
             d="M 120.983,243.142 H 85.269 c -3.945,0 -7.143,-3.198 -7.143,-7.143 v -35.714 c 0,-3.945 3.198,-7.143 7.143,-7.143 h 35.714 c 3.945,0 7.143,3.198 7.143,7.143 v 35.714 c 0,3.945 -3.198,7.143 -7.143,7.143 z"
             id="path20" />
          <path
             d="m 222.899,243.142 h -35.714 c -3.945,0 -7.143,-3.198 -7.143,-7.143 v -35.714 c 0,-3.945 3.198,-7.143 7.143,-7.143 h 35.714 c 3.945,0 7.143,3.198 7.143,7.143 v 35.714 c 0,3.945 -3.198,7.143 -7.143,7.143 z"
             id="path22" />
          <path
             d="m 324.815,243.142 h -35.714 c -3.945,0 -7.143,-3.198 -7.143,-7.143 v -35.714 c 0,-3.945 3.198,-7.143 7.143,-7.143 h 35.714 c 3.945,0 7.143,3.198 7.143,7.143 v 35.714 c 0,3.945 -3.198,7.143 -7.143,7.143 z"
             id="path24" />
          <path
             d="m 426.731,243.142 h -35.714 c -3.945,0 -7.143,-3.198 -7.143,-7.143 v -35.714 c 0,-3.945 3.198,-7.143 7.143,-7.143 h 35.714 c 3.945,0 7.143,3.198 7.143,7.143 v 35.714 c 0,3.945 -3.198,7.143 -7.143,7.143 z"
             id="path26" />
        </g>
        <g
           id="g36"
           style="fill:#fedba6"
           transform="translate(-80.892234,32.910201)">
          <path
             d="M 120.983,335.915 H 85.269 c -3.945,0 -7.143,-3.198 -7.143,-7.143 v -35.714 c 0,-3.945 3.198,-7.143 7.143,-7.143 h 35.714 c 3.945,0 7.143,3.198 7.143,7.143 v 35.714 c 0,3.945 -3.198,7.143 -7.143,7.143 z"
             id="path30" />
          <path
             d="m 222.899,335.915 h -35.714 c -3.945,0 -7.143,-3.198 -7.143,-7.143 v -35.714 c 0,-3.945 3.198,-7.143 7.143,-7.143 h 35.714 c 3.945,0 7.143,3.198 7.143,7.143 v 35.714 c 0,3.945 -3.198,7.143 -7.143,7.143 z"
             id="path32" />
          <path
             d="m 324.815,335.915 h -35.714 c -3.945,0 -7.143,-3.198 -7.143,-7.143 v -35.714 c 0,-3.945 3.198,-7.143 7.143,-7.143 h 35.714 c 3.945,0 7.143,3.198 7.143,7.143 v 35.714 c 0,3.945 -3.198,7.143 -7.143,7.143 z"
             id="path34" />
        </g>
        <path
           d="m 345.83877,371.0522 h -35.714 c -3.945,0 -7.143,-3.198 -7.143,-7.143 v -35.714 c 0,-3.945 3.198,-7.143 7.143,-7.143 h 35.714 c 3.945,0 7.143,3.198 7.143,7.143 v 35.714 c 0,3.945 -3.198,7.143 -7.143,7.143 z"
           id="path38"
           style="fill:#fedba6" />
        <path
           d="m 40.090766,461.5982 h -35.714 c -3.945,0 -7.143,-3.198 -7.143,-7.143 v -35.714 c 0,-3.945 3.198,-7.143 7.143,-7.143 h 35.714 c 3.945,0 7.143,3.198 7.143,7.143 v 35.714 c 0,3.945 -3.198,7.143 -7.143,7.143 z"
           id="path40"
           style="fill:#fedba6" />
        <path
           d="m 142.00677,461.5982 h -35.714 c -3.945,0 -7.143004,-3.198 -7.143004,-7.143 v -35.714 c 0,-3.945 3.198004,-7.143 7.143004,-7.143 h 35.714 c 3.945,0 7.143,3.198 7.143,7.143 v 35.714 c 0,3.945 -3.198,7.143 -7.143,7.143 z"
           id="path42"
           style="fill:#fe8e66;fill-opacity:0.938533" />
        <path
           d="m 243.92277,461.5982 h -35.714 c -3.945,0 -7.143,-3.198 -7.143,-7.143 v -35.714 c 0,-3.945 3.198,-7.143 7.143,-7.143 h 35.714 c 3.945,0 7.143,3.198 7.143,7.143 v 35.714 c 0,3.945 -3.198,7.143 -7.143,7.143 z"
           id="path44"
           style="fill:#fedba6" />
        <path
           d="m 306.21369,284.50581 h 35.714 c 8.074,0 14.643,-6.569 14.643,-14.643 v -35.714 c 0,-8.074 -6.569,-14.643 -14.643,-14.643 h -35.714 c -8.074,0 -14.643,6.569 -14.643,14.643 v 35.714 c 0,8.074 6.569,14.643 14.643,14.643 z m 0.357,-50 h 35 v 35 h -35 z m -0.357,145 h 35.714 c 8.074,0 14.643,-6.569 14.643,-14.643 v -35.714 c 0,-8.074 -6.569,-14.643 -14.643,-14.643 h -35.714 c -8.074,0 -14.643,6.569 -14.643,14.643 v 35.714 c 0,8.074 6.569,14.643 14.643,14.643 z m 0.357,-50 h 35 v 35 h -35 z m -102.273,-45 h 35.714 c 8.074,0 14.643,-6.569 14.643,-14.643 v -35.714 c 0,-8.074 -6.569,-14.643 -14.643,-14.643 h -35.714 c -8.074,0 -14.643,6.569 -14.643,14.643 v 35.714 c 0,8.074 6.569,14.643 14.643,14.643 z m 0.357,-50 h 35 v 35 h -35 z M 36.179686,405.05181 H 0.465687 c -8.074,0 -14.643,6.569 -14.643,14.643 v 35.714 c 0,8.074 6.569,14.643 14.643,14.643 h 35.713999 c 8.074,0 14.643,-6.569 14.643,-14.643 v -35.714 c 0,-8.074 -6.569,-14.643 -14.643,-14.643 z m -0.357,50 H 0.822687 v -35 h 34.999999 z m 0.357,-235.546 H 0.465687 c -8.074,0 -14.643,6.569 -14.643,14.643 v 35.714 c 0,8.074 6.569,14.643 14.643,14.643 h 35.713999 c 8.074,0 14.643,-6.569 14.643,-14.643 v -35.714 c 0,-8.075 -6.569,-14.643 -14.643,-14.643 z m -0.357,50 H 0.822687 v -35 h 34.999999 z m 168.475004,107.773 h 35.714 c 8.074,0 14.643,-6.569 14.643,-14.643 v -35.714 c 0,-8.074 -6.569,-14.643 -14.643,-14.643 h -35.714 c -8.074,0 -14.643,6.569 -14.643,14.643 v 35.714 c 0,8.074 6.569,14.643 14.643,14.643 z m 0.357,-50 h 35 v 35 h -35 z m 159.365,-259.953001 h -32.066 v -11.467 c 0,-12.576 -10.231,-22.807 -22.807,-22.807 h -3.444 c -12.575,0 -22.806,10.231 -22.806,22.807 v 11.467 H 59.496686 v -11.467 c 0,-12.576 -10.231,-22.807 -22.807,-22.807 h -3.444 c -12.576,0 -22.806999,10.231 -22.806999,22.807 v 11.467 h -32.065 c -20.705,0 -37.55,16.845 -37.55,37.550001 v 402.676 c 0,20.678 16.822,37.5 37.5,37.5 H 364.07169 c 20.678,0 37.5,-16.822 37.5,-37.5 v -402.676 c -10e-4,-20.705001 -16.846,-37.550001 -37.552,-37.550001 z m -66.123,-11.467 c 0,-4.305 3.502,-7.807 7.807,-7.807 h 3.444 c 4.305,0 7.807,3.502 7.807,7.807 v 11.467 h -19.058 z m -272.457004,0 c 0,-4.305 3.502,-7.807 7.807,-7.807 h 3.444 c 4.305,0 7.807,3.502 7.807,7.807 v 11.467 h -19.057 v -11.467 z M 386.57069,507.55181 c 0,12.407 -10.093,22.5 -22.5,22.5 H -21.677313 c -12.407,0 -22.5,-10.093 -22.5,-22.5 v -0.047 c 6.284,4.735 14.095,7.547 22.551,7.547 H 282.45669 c 10.03,0 19.46,-3.906 26.552,-10.999 l 77.562,-77.562 z m -85.215,-17.059 c 0.588,-2.427 0.908,-4.958 0.908,-7.563 v -50.064 c 0,-9.44 7.681,-17.121 17.122,-17.121 h 50.063 c 2.605,0 5.136,-0.32 7.563,-0.908 z m 85.215,-315.987 H 66.996686 c -4.142,0 -7.5,3.358 -7.5,7.5 0,4.142 3.358,7.5 7.5,7.5 H 386.57069 v 194.118 c 0,9.441 -7.681,17.122 -17.122,17.122 h -50.063 c -17.712,0 -32.122,14.41 -32.122,32.121 v 50.064 c 0,9.441 -7.681,17.122 -17.121,17.122 H -21.626313 c -12.434,0 -22.55,-10.116 -22.55,-22.551 v -287.996 h 81.172999 c 4.142,0 7.5,-3.358 7.5,-7.5 0,-4.142 -3.358,-7.5 -7.5,-7.5 h -81.173999 v -69.63 c 0,-12.434001 10.116,-22.550001 22.55,-22.550001 h 32.066 v 22.052001 c 0,12.576 10.230999,22.807 22.806999,22.807 4.142,0 7.5,-3.358 7.5,-7.5 0,-4.142 -3.358,-7.5 -7.5,-7.5 -4.305,0 -7.807,-3.502 -7.807,-7.807 V 82.325809 H 282.89669 v 22.052001 c 0,12.576 10.231,22.807 22.807,22.807 4.142,0 7.5,-3.358 7.5,-7.5 0,-4.142 -3.358,-7.5 -7.5,-7.5 -4.305,0 -7.807,-3.502 -7.807,-7.807 V 82.325809 h 66.124 c 12.434,0 22.55,10.116 22.55,22.550001 z M 36.179686,312.27881 H 0.465687 c -8.074,0 -14.643,6.569 -14.643,14.643 v 35.714 c 0,8.074 6.569,14.643 14.643,14.643 h 35.713999 c 8.074,0 14.643,-6.569 14.643,-14.643 v -35.714 c 0,-8.075 -6.569,-14.643 -14.643,-14.643 z m -0.357,50 H 0.822687 v -35 h 34.999999 z m 66.559004,-77.773 h 35.714 c 8.074,0 14.643,-6.569 14.643,-14.643 v -35.714 c 0,-8.074 -6.569,-14.643 -14.643,-14.643 h -35.714 c -8.074004,0 -14.643004,6.569 -14.643004,14.643 v 35.714 c 0,8.074 6.569,14.643 14.643004,14.643 z m 0.357,-50 h 35 v 35 h -35 z m 101.907,220.546 c 0.008,-35 -14.75222,-7.53127 -14.992,0.357 0,8.074 6.569,14.643 14.643,14.643 h 35.714 c 8.074,0 14.643,-6.569 14.643,-14.643 v -35.714 c 0,-8.074 -6.569,-14.643 -14.643,-14.643 h -35.714 c -8.074,0 -14.643,6.569 -14.643,14.643 v 35.714 c 1.72825,11.03883 14.74673,7.71203 14.992,-0.357 l 0.008,-35 h 35 v 35 z m -102.264,-77.773 h 35.714 c 8.074,0 14.643,-6.569 14.643,-14.643 v -35.714 c 0,-8.074 -6.569,-14.643 -14.643,-14.643 h -35.714 c -8.074004,0 -14.643004,6.569 -14.643004,14.643 v 35.714 c 0,8.074 6.569,14.643 14.643004,14.643 z m 0.357,-50 h 35 v 35 h -35 z m -0.357,142.773 h 35.714 c 8.074,0 14.643,-6.569 14.643,-14.643 v -35.714 c 0,-8.074 -6.569,-14.643 -14.643,-14.643 h -35.714 c -8.074004,0 -14.643004,6.569 -14.643004,14.643 v 35.714 c 0,8.074 6.569,14.643 14.643004,14.643 z m 0.357,-50 h 35 v 35 h -35 z"
           id="path52"
           sodipodi:nodetypes="ssssssssscccccssssssssscccccssssssssscccccssssssssscccccssssssssscccccssssssssscccccscssssccsssscsssssscsssssccscsssccccsssscssccscsssscccssscsssssssscssscsscsssssccssssscsscssssssssscccccssssssssscccccccsssssssccccccssssssssscccccsssssssssccccc" />
      </g>
      <g
         id="g261"
         transform="matrix(0.89963484,0,0,0.89963484,-27.727924,86.800255)">
        <path
           id="Shape"
           d="m 279.84181,281.37158 c -1.69077,5.87075 -3.05279,11.55364 -4.27391,16.90777 -3.08331,13.68826 -5.04672,27.6049 -5.87075,41.61191 l -23.48302,23.48301 c 1.06964,-20.13595 7.56055,-39.60869 18.78642,-56.35924 3.99211,-6.01165 6.19951,-9.34624 7.84332,-12.1642 2.25437,-3.80425 3.52246,-6.57525 6.99794,-13.47925 z"
           fill="#673ab7"
           style="fill-rule:nonzero;stroke-width:4.6966" />
        <path
           id="path3"
           d="m 462.25789,194.29655 c -65.75245,42.26943 -53.02466,20.85292 -89.23547,75.14566 -27.70996,41.56493 -73.59577,42.26943 -97.45451,28.83714 1.22111,-5.35413 2.58313,-11.03702 4.27391,-16.90777 -3.47549,6.904 -4.74357,9.675 -6.99794,13.47925 -12.94369,-25.25915 -15.74937,-54.50876 -7.84333,-81.76786 14.08981,-46.96604 56.35924,-79.84226 108.02187,-84.53886 51.66264,-4.6966 103.32527,14.08981 145.5947,-37.572827 0,0 9.39321,61.055837 -56.35923,103.325267 z"
           fill="#9d27b0"
           style="fill-rule:nonzero;stroke-width:4.6966" />
        <path
           id="path5"
           d="m 518.61712,90.97128 c -4.1784,5.135233 -8.80902,9.88531 -13.83619,14.19314 -1.34323,20.56172 -10.46403,59.46369 -56.61285,89.13213 -65.75245,42.26943 -53.02466,20.85292 -89.23547,75.14566 -12.81359,20.41981 -34.33348,33.78374 -58.31772,36.2155 29.03366,2.54626 57.03077,-11.45683 72.40753,-36.2155 36.21081,-54.29274 23.48302,-32.87623 89.23547,-75.14566 65.75244,-42.26943 56.35923,-103.32527 56.35923,-103.32527 z"
           fill="#6a1b9a"
           style="fill-rule:nonzero;stroke-width:4.6966" />
        <path
           id="path7"
           d="m 520.4473,87.582018 c -1.78892,-0.487134 -3.69701,0.123747 -4.87038,1.559273 -30.22734,36.943479 -65.6726,36.135669 -103.16089,35.262099 -11.3423,-0.25362 -23.01336,-0.46966 -34.75486,0.31467 -0.25935,-0.006 -0.51874,0.0109 -0.77494,0.0517 -1.23991,0.0845 -2.47511,0.12681 -3.71032,0.23953 -18.21418,1.61778 -35.91568,6.88893 -52.04776,15.49879 -0.37821,0.13902 -0.73664,0.32693 -1.06613,0.5589 -28.36057,15.21901 -49.55573,41.03137 -58.96585,71.81107 -8.10327,27.54062 -5.619,57.11561 6.96506,82.91853 -1.47004,2.3483 -3.40973,5.30716 -6.37329,9.75484 -11.77419,17.50538 -18.54294,37.89446 -19.57544,58.96586 0,2.59386 2.10274,4.6966 4.6966,4.6966 11.3376,-9.39321 0,0 11.3376,-9.39321 l 15.46592,-15.46591 c 0.8406,-0.83874 1.33229,-1.96476 1.3761,-3.15142 0.69948,-11.73487 2.22971,-23.40542 4.57919,-34.92395 9.07357,3.69477 18.78676,5.56367 28.58353,5.49973 28.21627,-0.11061 54.40479,-14.68262 69.37353,-38.60139 24.85912,-37.29103 25.67633,-37.7372 46.57152,-49.24858 9.16776,-5.05354 21.73117,-11.97164 41.29722,-24.55384 67.54186,-43.38722 58.86253,-105.358908 58.45862,-107.974916 -0.28137,-1.83353 -1.61556,-3.329678 -3.40503,-3.818339 z M 265.69414,338.9912 l -12.7184,12.7137 c 2.65835,-14.34512 8.1181,-28.0256 16.06708,-40.25928 -1.61621,9.11415 -2.73409,18.30966 -3.34868,27.54558 z m 194.61785,-147.50153 -0.34285,0.21605 c -4.75748,-0.5379 -9.31681,-2.20799 -13.29609,-4.87038 -2.15809,-1.43959 -5.07459,-0.85714 -6.51419,1.30096 -1.43959,2.15809 -0.85713,5.07459 1.30096,6.51419 2.39891,1.57147 4.96098,2.87849 7.64138,3.89818 -13.08474,8.08285 -22.38871,13.22563 -29.54164,17.16608 -8.76756,4.1521 -16.80053,9.70411 -23.78359,16.43812 -8.39858,1.13896 -16.94887,-0.0132 -24.7464,-3.33459 -2.31892,-1.16724 -5.145,-0.23361 -6.31224,2.08529 -1.16724,2.31891 -0.23361,5.145 2.08529,6.31223 6.54295,3.05977 13.68158,4.63473 20.90459,4.61207 -4.13771,5.5279 -9.05975,12.77946 -15.59273,22.54369 -11.74151,5.19445 -28.38627,9.48245 -43.36843,2.00545 -2.31775,-1.13285 -5.11537,-0.18415 -6.26599,2.12481 -1.15061,2.30897 -0.22346,5.1138 2.07661,6.28211 6.81701,3.36804 14.3298,5.08777 21.93314,5.02067 5.22925,-0.0394 10.4341,-0.71749 15.49879,-2.01954 -19.82119,23.14746 -52.3121,30.86414 -80.42463,19.10109 0.9675,-4.1565 2.05241,-8.45389 3.3158,-12.91566 26.74246,-71.0784 59.37446,-80.78158 104.52761,-94.23265 28.0924,-7.40079 55.13682,-18.32239 80.49038,-32.50519 1.52864,-0.79966 2.49584,-2.37301 2.51918,-4.09802 0.0235,-1.72501 -0.9009,-3.32397 -2.40734,-4.16471 -1.50644,-0.84074 -3.35255,-0.7879 -4.80844,0.13761 -24.7128,13.79713 -51.06447,24.42774 -78.43328,31.64102 -45.94217,13.67181 -82.23752,24.4787 -110.6191,99.88266 l -2.05241,4.09544 -0.32877,0.65753 c -9.06937,-22.18914 -10.3573,-46.79561 -3.65395,-69.81032 0.12681,-0.41799 0.29588,-0.8172 0.42739,-1.2352 1.16854,4.19539 2.93876,8.19935 5.2555,11.8871 1.43959,2.15809 4.35609,2.74055 6.51419,1.30096 2.15809,-1.43959 2.74055,-4.35609 1.30096,-6.51419 -3.76716,-6.88952 -6.10125,-14.4701 -6.86174,-22.28538 7.77037,-15.66218 19.08878,-29.29476 33.0547,-39.81311 -4.33297,10.05447 -6.59021,20.88061 -6.6363,31.82888 0,2.59387 2.10274,4.69661 4.6966,4.69661 2.59386,0 4.6966,-2.10274 4.6966,-4.69661 0.19214,-15.06776 4.86302,-29.73766 13.4182,-42.14262 12.70978,-6.72948 26.47934,-11.22984 40.71016,-13.30548 -2.49205,3.52017 -4.71965,7.22028 -6.66448,11.0699 -0.75508,1.50007 -0.65251,3.28902 0.26906,4.69297 0.92157,1.40395 2.52213,2.2096 4.19877,2.11347 1.67663,-0.0961 3.17462,-1.07943 3.9297,-2.5795 3.02358,-5.99109 6.81256,-11.56405 11.27185,-16.57901 10.85385,-0.64344 21.82041,-0.46966 32.4864,-0.20665 3.75728,0.0892 7.53805,0.16908 11.31411,0.21604 -1.13124,2.80846 -2.06347,5.69304 -2.78978,8.63236 -0.40437,1.62928 0.0912,3.35052 1.29997,4.51537 1.2088,1.16484 2.94721,1.59631 4.5604,1.13188 1.61318,-0.46445 2.85605,-1.75421 3.26043,-3.38349 0.90779,-3.78025 2.25716,-7.44058 4.02029,-10.90551 28.06691,-0.42739 56.05866,-5.02067 81.01171,-30.05826 -0.84538,18.86156 -8.60887,58.00305 -54.54635,87.53529 z"
           style="fill:#000000;fill-rule:nonzero;stroke-width:4.6966"
           sodipodi:nodetypes="ccccccccccccccccccccccccccccccscccccsccccsccccccccsccccccccsccccsccccsscccccsscccc" />
      </g>
    </g>
  </g>
</svg>
